<svg aria-hidden="true" style="position: absolute; width: 0; height: 0; overflow: hidden;" version="1.1" xmlns="http://www.w3.org/2000/svg" xmlns:xlink="http://www.w3.org/1999/xlink">
  <defs>
    <symbol id="icon-icon-1" viewBox="0 0 28 32">
      <path fill="#02897a" style="fill: var(--color1, #02897a)" d="M9.806 0h8.258c5.416 0 9.806 4.391 9.806 9.806v8.258c0 5.416-4.39 9.806-9.806 9.806h-8.258c-5.416 0-9.806-4.39-9.806-9.806v-8.258c0-5.416 4.391-9.806 9.806-9.806z"></path>
      <path fill="#fff" style="fill: var(--color2, #fff)" d="M16.576 14.76l-4.719-4.719c-0.055-0.060-0.129-0.088-0.207-0.088-0.037 0-0.078 0.009-0.111 0.023-0.111 0.046-0.184 0.152-0.184 0.272v6.931c0 0.12 0.074 0.226 0.184 0.272 0.032 0.014 0.074 0.023 0.111 0.023 0.078 0 0.152-0.032 0.207-0.088l1.438-1.438 0.88 2.083c0.065 0.147 0.235 0.221 0.387 0.157l0.816-0.346c0.148-0.065 0.221-0.235 0.157-0.387l-0.926-2.194h1.76c0.12 0 0.226-0.074 0.272-0.184 0.046-0.106 0.023-0.235-0.065-0.318z"></path>
    </symbol>
    <symbol id="icon-icon-2" viewBox="0 0 28 32">
      <path fill="#4d8dff" style="fill: var(--color3, #4d8dff)" d="M9.806 0h8.258c5.416 0 9.806 4.391 9.806 9.806v8.258c0 5.416-4.39 9.806-9.806 9.806h-8.258c-5.416 0-9.806-4.39-9.806-9.806v-8.258c0-5.416 4.391-9.806 9.806-9.806z"></path>
      <path fill="#fff" style="fill: var(--color2, #fff)" d="M14.184 13.235l0.604 0.281 0.899-0.267v-0.627c0-1.065-0.899-1.917-1.972-1.917-1.069 0-1.972 0.848-1.972 1.903v2.857c0 0.263-0.212 0.47-0.47 0.47s-0.47-0.207-0.47-0.47v-1.207h-1.512c0 1.212 0 1.226 0 1.226 0 1.092 0.885 1.977 1.977 1.977 1.083 0 1.977-0.871 1.977-1.949v-2.82c0-0.258 0.212-0.47 0.47-0.47s0.47 0.212 0.47 0.47v0.544zM16.627 14.258v1.267c0 0.258-0.212 0.465-0.47 0.465s-0.47-0.207-0.47-0.465v-1.244l-0.899 0.267-0.604-0.281v1.235c0 1.083 0.889 1.959 1.977 1.959 1.092 0 1.977-0.885 1.977-1.977 0 0 0-0.014 0-1.226h-1.512z"></path>
    </symbol>
    <symbol id="icon-icon-3" viewBox="0 0 28 32">
      <path fill="#740a76" style="fill: var(--color4, #740a76)" d="M9.806 0h8.258c5.416 0 9.806 4.391 9.806 9.806v8.258c0 5.416-4.39 9.806-9.806 9.806h-8.258c-5.416 0-9.806-4.39-9.806-9.806v-8.258c0-5.416 4.391-9.806 9.806-9.806z"></path>
      <path fill="#fff" style="fill: var(--color2, #fff)" d="M13.935 17.622c0.074 0 0.147-0.028 0.203-0.083l2.871-2.765c0.041-0.041 1.055-0.968 1.055-2.074 0-1.35-0.825-2.157-2.203-2.157-0.806 0-1.562 0.636-1.926 0.995-0.364-0.359-1.12-0.995-1.926-0.995-1.378 0-2.203 0.806-2.203 2.157 0 1.106 1.014 2.032 1.051 2.065l2.876 2.774c0.055 0.055 0.129 0.083 0.203 0.083z"></path>
    </symbol>
    <symbol id="icon-icon-4" viewBox="0 0 32 32">
      <path fill="#f03e3d" style="fill: var(--color5, #f03e3d)" d="M11.259 0h9.481c6.218 0 11.259 5.041 11.259 11.259v9.481c0 6.218-5.041 11.259-11.259 11.259h-9.481c-6.218 0-11.259-5.041-11.259-11.259v-9.481c0-6.218 5.041-11.259 11.259-11.259z"></path>
      <path fill="#fff" style="fill: var(--color2, #fff)" d="M19.302 12.106h0.508c0.095 0 0.169-0.074 0.169-0.169v-0.339c0-0.095-0.074-0.169-0.169-0.169h-7.788c-0.095 0-0.169 0.074-0.169 0.169v0.339c0 0.095 0.074 0.169 0.169 0.169h0.508c0 1.958 0.936 3.376 1.973 4.063-1.037 0.688-1.973 2.106-1.973 4.064h-0.508c-0.095 0-0.169 0.074-0.169 0.169v0.339c0 0.095 0.074 0.169 0.169 0.169h7.788c0.095 0 0.169-0.074 0.169-0.169v-0.339c0-0.095-0.074-0.169-0.169-0.169h-0.508c0-1.958-0.936-3.376-1.974-4.064 1.037-0.688 1.974-2.106 1.974-4.063zM18.624 12.106c0 0.772-0.175 1.455-0.45 2.032h-4.519c-0.275-0.577-0.45-1.259-0.45-2.032h5.418zM18.323 18.54h-4.815c0.392-1.021 1.095-1.746 1.799-2.032h1.217c0.704 0.286 1.407 1.011 1.799 2.032z"></path>
    </symbol>
    <symbol id="icon-icon-5" viewBox="0 0 33 32">
      <path fill="#f90" style="fill: var(--color6, #f90)" d="M12.667 1.333h6.726c6.259 0 11.333 5.074 11.333 11.333v6.667c0 6.259-5.074 11.333-11.333 11.333h-6.726c-6.259 0-11.333-5.074-11.333-11.333v-6.667c0-6.259 5.074-11.333 11.333-11.333z"></path>
      <path fill="none" stroke="#fff" style="stroke: var(--color2, #fff)" stroke-linejoin="miter" stroke-linecap="butt" stroke-miterlimit="4" stroke-width="2.6667" d="M12.667 1.333h6.726c6.259 0 11.333 5.074 11.333 11.333v6.667c0 6.259-5.074 11.333-11.333 11.333h-6.726c-6.259 0-11.333-5.074-11.333-11.333v-6.667c0-6.259 5.074-11.333 11.333-11.333z"></path>
      <path fill="none" stroke="#f90" style="stroke: var(--color6, #f90)" stroke-linejoin="miter" stroke-linecap="butt" stroke-miterlimit="4" stroke-width="2.6667" d="M12.667 1.333h6.726c6.259 0 11.333 5.074 11.333 11.333v6.667c0 6.259-5.074 11.333-11.333 11.333h-6.726c-6.259 0-11.333-5.074-11.333-11.333v-6.667c0-6.259 5.074-11.333 11.333-11.333z"></path>
      <path fill="#fff" style="fill: var(--color2, #fff)" d="M23.601 11.19c-0.286-0.292-0.75-0.292-1.036 0l-8.779 8.949-3.375-3.44c-0.286-0.292-0.75-0.292-1.036 0s-0.286 0.765 0 1.056l3.893 3.968c0.286 0.292 0.75 0.291 1.036 0l9.297-9.478c0.286-0.292 0.286-0.765 0-1.056z"></path>
    </symbol>
    <symbol id="icon-icon-6" viewBox="0 0 33 32">
      <path fill="#f03e3d" style="fill: var(--color5, #f03e3d)" d="M12.667 1.333h6.726c6.259 0 11.333 5.074 11.333 11.333v6.667c0 6.259-5.074 11.333-11.333 11.333h-6.726c-6.259 0-11.333-5.074-11.333-11.333v-6.667c0-6.259 5.074-11.333 11.333-11.333z"></path>
      <path fill="none" stroke="#fff" style="stroke: var(--color2, #fff)" stroke-linejoin="miter" stroke-linecap="butt" stroke-miterlimit="4" stroke-width="2.6667" d="M12.667 1.333h6.726c6.259 0 11.333 5.074 11.333 11.333v6.667c0 6.259-5.074 11.333-11.333 11.333h-6.726c-6.259 0-11.333-5.074-11.333-11.333v-6.667c0-6.259 5.074-11.333 11.333-11.333z"></path>
      <path fill="none" stroke="#f03e3d" style="stroke: var(--color5, #f03e3d)" stroke-linejoin="miter" stroke-linecap="butt" stroke-miterlimit="4" stroke-width="2.6667" d="M12.667 1.333h6.726c6.259 0 11.333 5.074 11.333 11.333v6.667c0 6.259-5.074 11.333-11.333 11.333h-6.726c-6.259 0-11.333-5.074-11.333-11.333v-6.667c0-6.259 5.074-11.333 11.333-11.333z"></path>
      <path fill="#fff" style="fill: var(--color2, #fff)" d="M23.601 11.19c-0.286-0.292-0.75-0.292-1.036 0l-8.779 8.949-3.375-3.44c-0.286-0.292-0.75-0.292-1.036 0s-0.286 0.765 0 1.056l3.893 3.968c0.286 0.292 0.75 0.291 1.036 0l9.297-9.478c0.286-0.292 0.286-0.765 0-1.056z"></path>
    </symbol>
    <symbol id="icon-icon-7" viewBox="0 0 33 32">
      <path fill="#4d8dff" style="fill: var(--color3, #4d8dff)" d="M12.667 1.333h6.726c6.259 0 11.333 5.074 11.333 11.333v6.667c0 6.259-5.074 11.333-11.333 11.333h-6.726c-6.259 0-11.333-5.074-11.333-11.333v-6.667c0-6.259 5.074-11.333 11.333-11.333z"></path>
      <path fill="none" stroke="#fff" style="stroke: var(--color2, #fff)" stroke-linejoin="miter" stroke-linecap="butt" stroke-miterlimit="4" stroke-width="2.6667" d="M12.667 1.333h6.726c6.259 0 11.333 5.074 11.333 11.333v6.667c0 6.259-5.074 11.333-11.333 11.333h-6.726c-6.259 0-11.333-5.074-11.333-11.333v-6.667c0-6.259 5.074-11.333 11.333-11.333z"></path>
      <path fill="none" stroke="#4d8dff" style="stroke: var(--color3, #4d8dff)" stroke-linejoin="miter" stroke-linecap="butt" stroke-miterlimit="4" stroke-width="2.6667" d="M12.667 1.333h6.726c6.259 0 11.333 5.074 11.333 11.333v6.667c0 6.259-5.074 11.333-11.333 11.333h-6.726c-6.259 0-11.333-5.074-11.333-11.333v-6.667c0-6.259 5.074-11.333 11.333-11.333z"></path>
      <path fill="#fff" style="fill: var(--color2, #fff)" d="M23.601 11.19c-0.286-0.292-0.75-0.292-1.036 0l-8.779 8.949-3.375-3.44c-0.286-0.292-0.75-0.292-1.036 0s-0.286 0.765 0 1.056l3.893 3.968c0.286 0.292 0.75 0.291 1.036 0l9.297-9.478c0.286-0.292 0.286-0.765 0-1.056z"></path>
    </symbol>
    <symbol id="icon-Triangle-Copy-6" viewBox="0 0 28 32">
      <path fill="#02897a" style="fill: var(--color1, #02897a)" d="M26.088 12.891c2.441 1.354 2.441 4.864 0 6.218l-21.155 11.739c-2.37 1.315-5.281-0.399-5.281-3.109v-23.477c0-2.71 2.911-4.424 5.281-3.109l21.155 11.739z"></path>
    </symbol>
    <symbol id="icon-stars" viewBox="0 0 188 32">
      <path fill="#f3cd03" style="fill: var(--color1, #f3cd03)" d="M32.404 11.487c-0.102-0.296-0.29-0.556-0.541-0.749s-0.553-0.308-0.869-0.333l-9.261-0.725-4.008-8.736c-0.128-0.281-0.335-0.52-0.598-0.688s-0.569-0.257-0.882-0.257c-0.313-0-0.619 0.089-0.882 0.256s-0.471 0.406-0.599 0.687l-4.008 8.737-9.261 0.725c-0.311 0.024-0.609 0.136-0.857 0.323s-0.437 0.439-0.543 0.728c-0.106 0.289-0.125 0.602-0.055 0.902s0.226 0.573 0.449 0.787l6.844 6.57-2.421 10.321c-0.074 0.312-0.050 0.639 0.068 0.938s0.324 0.556 0.592 0.739c0.268 0.182 0.585 0.281 0.911 0.283s0.645-0.092 0.915-0.27l8.845-5.807 8.845 5.807c0.277 0.181 0.603 0.274 0.935 0.267s0.654-0.114 0.922-0.307c0.268-0.193 0.47-0.462 0.579-0.771s0.118-0.644 0.028-0.958l-2.971-10.238 7.369-6.53c0.482-0.429 0.66-1.097 0.452-1.704z"></path>
      <path fill="#f3cd03" style="fill: var(--color1, #f3cd03)" d="M71.393 11.487c-0.102-0.296-0.29-0.556-0.541-0.749s-0.553-0.308-0.87-0.333l-9.261-0.725-4.008-8.736c-0.128-0.281-0.335-0.52-0.598-0.688s-0.569-0.257-0.882-0.257c-0.313-0-0.619 0.089-0.882 0.256s-0.471 0.406-0.599 0.687l-4.008 8.737-9.261 0.725c-0.311 0.024-0.609 0.136-0.857 0.323s-0.436 0.439-0.543 0.728-0.125 0.602-0.055 0.902c0.070 0.3 0.226 0.573 0.449 0.787l6.844 6.57-2.421 10.321c-0.073 0.312-0.050 0.639 0.068 0.938s0.324 0.556 0.591 0.739c0.268 0.182 0.585 0.281 0.911 0.283s0.644-0.092 0.915-0.27l8.846-5.807 8.845 5.807c0.277 0.181 0.603 0.274 0.935 0.267s0.654-0.114 0.922-0.307c0.268-0.193 0.47-0.462 0.579-0.771s0.118-0.644 0.028-0.958l-2.971-10.238 7.369-6.53c0.483-0.429 0.66-1.097 0.452-1.704z"></path>
      <path fill="#f3cd03" style="fill: var(--color1, #f3cd03)" d="M110.376 11.487c-0.102-0.296-0.29-0.556-0.541-0.749s-0.553-0.308-0.87-0.333l-9.261-0.725-4.008-8.736c-0.128-0.281-0.335-0.52-0.598-0.688s-0.569-0.257-0.882-0.257c-0.313-0-0.619 0.089-0.882 0.256s-0.471 0.406-0.599 0.687l-4.008 8.737-9.261 0.725c-0.311 0.024-0.609 0.136-0.857 0.323s-0.437 0.439-0.543 0.728c-0.106 0.289-0.125 0.602-0.055 0.902s0.226 0.573 0.449 0.787l6.844 6.57-2.42 10.321c-0.073 0.312-0.050 0.639 0.068 0.938s0.324 0.556 0.592 0.739c0.268 0.182 0.585 0.281 0.911 0.283s0.644-0.092 0.915-0.27l8.846-5.807 8.845 5.807c0.277 0.181 0.603 0.274 0.935 0.267s0.654-0.114 0.922-0.307c0.268-0.193 0.471-0.462 0.579-0.771s0.118-0.644 0.028-0.958l-2.971-10.238 7.369-6.53c0.482-0.429 0.66-1.097 0.452-1.704z"></path>
      <path fill="#f3cd03" style="fill: var(--color1, #f3cd03)" d="M149.369 11.487c-0.102-0.296-0.29-0.556-0.541-0.749s-0.553-0.308-0.869-0.333l-9.261-0.725-4.008-8.736c-0.128-0.281-0.335-0.52-0.598-0.688s-0.569-0.257-0.882-0.257-0.619 0.089-0.882 0.256c-0.263 0.167-0.471 0.406-0.599 0.687l-4.008 8.737-9.261 0.725c-0.311 0.024-0.609 0.136-0.857 0.323s-0.437 0.439-0.543 0.728c-0.106 0.289-0.125 0.602-0.055 0.902s0.226 0.573 0.449 0.787l6.844 6.57-2.42 10.321c-0.074 0.312-0.050 0.639 0.068 0.938s0.324 0.556 0.592 0.739c0.268 0.182 0.585 0.281 0.911 0.283s0.645-0.092 0.915-0.27l8.845-5.807 8.845 5.807c0.277 0.181 0.603 0.274 0.935 0.267s0.654-0.114 0.922-0.307 0.47-0.462 0.579-0.771c0.109-0.309 0.118-0.644 0.028-0.958l-2.971-10.238 7.369-6.53c0.482-0.429 0.66-1.097 0.452-1.704z"></path>
      <path fill="#f3cd03" style="fill: var(--color1, #f3cd03)" d="M163.291 19.716l-2.42 10.321c-0.075 0.313-0.052 0.64 0.065 0.94s0.323 0.558 0.591 0.74c0.268 0.183 0.586 0.281 0.912 0.283s0.645-0.093 0.916-0.273l8.845-5.807 8.846 5.807c0.276 0.181 0.603 0.274 0.935 0.267s0.654-0.114 0.923-0.307c0.268-0.193 0.469-0.462 0.578-0.771s0.119-0.644 0.028-0.958l-2.971-10.238 7.369-6.53c0.235-0.209 0.404-0.482 0.484-0.785s0.069-0.622-0.032-0.918c-0.103-0.296-0.29-0.556-0.54-0.748s-0.553-0.308-0.869-0.332l-9.262-0.726-4.008-8.736c-0.128-0.281-0.335-0.52-0.598-0.688s-0.569-0.257-0.882-0.257c-0.313 0-0.619 0.089-0.882 0.257s-0.47 0.406-0.598 0.688l-4.008 8.736-9.261 0.725c-0.311 0.024-0.609 0.136-0.857 0.323s-0.437 0.439-0.543 0.728c-0.106 0.289-0.125 0.602-0.056 0.902s0.226 0.573 0.45 0.787l6.845 6.57zM167.925 12.796c0.29-0.023 0.568-0.121 0.806-0.286s0.426-0.39 0.545-0.651l2.923-6.368 2.923 6.368c0.119 0.261 0.308 0.486 0.545 0.651s0.516 0.264 0.806 0.286l6.453 0.504-5.314 4.709c-0.461 0.409-0.645 1.040-0.476 1.628l2.035 7.014-6.069-3.985c-0.266-0.176-0.58-0.27-0.901-0.27s-0.634 0.094-0.901 0.27l-6.342 4.164 1.706-7.272c0.063-0.267 0.054-0.546-0.024-0.81s-0.225-0.502-0.424-0.694l-4.935-4.738 6.644-0.521z"></path>
    </symbol>
  </defs>
</svg>